<svg width="56" height="54" viewBox="0 0 56 54" fill="none" xmlns="http://www.w3.org/2000/svg">
<g clip-path="url(#clip0_7_24)">
<g clip-path="url(#clip1_7_24)">
<g clip-path="url(#clip2_7_24)">
<path fill-rule="evenodd" clip-rule="evenodd" d="M51.5375 35.5076L50.6079 35.3636L46.1222 21.0021C47.0691 21.0366 48.0554 20.8028 48.9397 20.5504C50.2706 20.1449 50.7963 18.4492 50.0283 17.274L49.9856 17.2118C49.5097 16.5274 48.6669 16.1741 47.8336 16.4348C47.0601 16.6488 45.9691 16.8674 44.9897 16.7156C42.3452 16.3059 41.489 13.1954 33.2101 11.4084C34.3236 10.7891 35.1644 9.66078 35.4221 8.26435C35.8802 5.73158 34.2397 3.36501 31.8082 3.05905C29.5745 2.78195 27.5228 4.3644 27.0933 6.6932C26.8205 8.19801 27.2894 9.64406 28.2242 10.6345C19.7754 9.82643 18.0186 12.5367 15.3721 12.1267C14.3393 11.9667 13.4094 11.4892 12.7464 10.9985C12.0226 10.5525 11.1204 10.5794 10.4602 11.0879L10.4006 11.1342C9.31085 12.0216 9.30973 13.743 10.4467 14.5863C11.2054 15.1475 12.0847 15.6185 12.9955 15.8694L4.37406 28.2002L3.44454 28.0561C3.03247 27.9922 2.66263 28.324 2.64828 28.7662C2.67848 32.3267 6.44603 35.6308 11.5543 36.4222C16.6635 37.2138 21.2545 35.2038 22.3605 31.8205C22.4788 31.3951 22.2291 30.9665 21.8166 30.9026L20.8866 30.7585L16.3922 16.4526C20.7343 16.7364 23.3575 14.8104 26.6597 15.3221L22.5747 41.6868C20.7686 41.407 19.029 42.7479 18.7347 44.6475L15.0703 44.0798C13.626 43.856 11.8863 45.197 11.5921 47.0957L38.0108 51.189C38.305 49.2903 37.0527 47.4858 34.8851 47.1499L31.9435 46.6941C32.2378 44.7945 30.9855 42.99 29.1794 42.7101L33.2643 16.3454C36.5664 16.857 38.4834 19.4882 42.7082 20.5299L34.0954 32.8052L33.1659 32.6611C32.7538 32.5972 32.384 32.929 32.3697 33.3712C32.3999 36.9317 36.1674 40.2358 41.2757 41.0272C46.3848 41.8189 50.9759 39.8088 52.0819 36.4255C52.2002 36.0002 51.95 35.5715 51.5375 35.5076ZM37.3987 33.3169L43.8651 24.3197L47.3059 34.8519L37.3987 33.3169ZM17.5836 30.2468L7.67711 28.7119L14.1435 19.7146L17.5836 30.2468Z" fill="#F3F4F6"/>
</g>
</g>
</g>
<defs>
<clipPath id="clip0_7_24">
<rect width="51.0045" height="48.9964" fill="white" transform="translate(4.27032) rotate(5)"/>
</clipPath>
<clipPath id="clip1_7_24">
<rect width="51.0045" height="48.9964" fill="white" transform="translate(4.27032) rotate(5)"/>
</clipPath>
<clipPath id="clip2_7_24">
<rect width="51" height="49" fill="white" transform="translate(4.27032) rotate(5)"/>
</clipPath>
</defs>
</svg>
