<svg width="27" height="27" viewBox="0 0 27 27" fill="none" xmlns="http://www.w3.org/2000/svg">
<path d="M16.2473 7.81462C17.3979 7.81462 18.3306 8.74736 18.3306 9.89795M22.4973 9.89795C22.4973 13.3497 19.6991 16.1479 16.2473 16.1479C15.6159 16.1479 15.0063 16.0543 14.4317 15.8801L12.0806 18.2312H9.99731V20.3146H7.91398V22.3979H4.78898C4.21368 22.3979 3.74731 21.9315 3.74731 21.3562V18.6627C3.74731 18.3864 3.85706 18.1215 4.05241 17.9261L10.2651 11.7135C10.091 11.1389 9.99731 10.5293 9.99731 9.89795C9.99731 6.44617 12.7955 3.64795 16.2473 3.64795C19.6991 3.64795 22.4973 6.44617 22.4973 9.89795Z" stroke="white" stroke-width="1.6" stroke-linecap="round" stroke-linejoin="round"/>
</svg>
