<svg width="27" height="27" viewBox="0 0 27 27" fill="none" xmlns="http://www.w3.org/2000/svg">
<path d="M22.4973 14.2837C19.6022 15.4556 16.4376 16.1009 13.1223 16.1009C9.807 16.1009 6.64241 15.4556 3.74731 14.2837M17.289 6.72599V4.64266C17.289 3.49207 16.3562 2.55933 15.2056 2.55933H11.039C9.88838 2.55933 8.95564 3.49207 8.95564 4.64266V6.72599M13.1223 12.9759H13.1327M5.83064 21.3093H20.414C21.5646 21.3093 22.4973 20.3765 22.4973 19.2259V8.80933C22.4973 7.65873 21.5646 6.72599 20.414 6.72599H5.83064C4.68005 6.72599 3.74731 7.65873 3.74731 8.80933V19.2259C3.74731 20.3765 4.68005 21.3093 5.83064 21.3093Z" stroke="white" stroke-width="2" stroke-linecap="round" stroke-linejoin="round"/>
</svg>
